<svg width="160" height="128" viewBox="0 0 160 128" fill="none" xmlns="http://www.w3.org/2000/svg">
<path d="M11.875 73.125C11.8125 73.1458 11.7396 73.1562 11.6562 73.1562C11.2812 73.1562 11.0938 72.9792 11.0938 72.625C11.0938 72.4583 11.1667 72.3021 11.3125 72.1562L23.0312 64.0938C23.4062 63.8229 23.8333 63.6875 24.3125 63.6875C25.8542 63.6875 26.625 64.4583 26.625 66C26.625 67.0833 26.1354 67.8021 25.1562 68.1562L11.875 73.125ZM32.5 104.438C32.5 105.792 33.0208 106.656 34.0625 107.031C35.1042 107.385 35.625 107.823 35.625 108.344C35.625 108.781 35.4062 109 34.9688 109H27.375C27.0208 109 26.8438 108.865 26.8438 108.594V106.562C25.6979 107 24.6771 107.396 23.7812 107.75C22.9062 108.083 22.0938 108.375 21.3438 108.625C19.4062 109.271 17.4167 109.698 15.375 109.906C15.0833 109.927 14.8021 109.938 14.5312 109.938C12.8021 109.938 11.1562 109.354 9.59375 108.188C7.05208 106.271 5.78125 102.115 5.78125 95.7188V84.4375C5.78125 83.125 5.26042 82.2812 4.21875 81.9062C3.17708 81.5312 2.65625 81.0729 2.65625 80.5312C2.65625 80.0938 2.875 79.875 3.3125 79.875C4.6875 79.8125 6.04167 79.6042 7.375 79.25C8.72917 78.875 10.0833 78.4583 11.4375 78V95.7188C11.4375 100.302 12.3854 103.51 14.2812 105.344C15.4896 106.531 16.9688 107.125 18.7188 107.125C19.7188 107.125 20.8125 106.927 22 106.531C22.4375 106.385 23.0104 106.177 23.7188 105.906C24.4271 105.635 25.0312 105.406 25.5312 105.219C25.6354 105.177 25.8021 105.115 26.0312 105.031C26.2812 104.948 26.5521 104.844 26.8438 104.719V84.4375C26.8438 83.125 26.3229 82.2812 25.2812 81.9062C24.2396 81.5312 23.7188 81.0729 23.7188 80.5312C23.7188 80.0938 23.9375 79.875 24.375 79.875C25.75 79.8125 27.1042 79.6042 28.4375 79.25C29.7917 78.875 31.1458 78.4583 32.5 78V104.438ZM50.0625 82.3438C51.2083 81.9062 52.2188 81.5208 53.0938 81.1875C53.9688 80.8542 54.8021 80.5521 55.5938 80.2812C57.5104 79.6146 59.5 79.1771 61.5625 78.9688C61.8125 78.9479 62.0729 78.9375 62.3438 78.9375C64.0938 78.9375 65.7604 79.5312 67.3438 80.7188C69.8646 82.6562 71.125 86.8125 71.125 93.1875V104.438C71.125 105.792 71.6458 106.656 72.6875 107.031C73.7292 107.385 74.25 107.823 74.25 108.344C74.25 108.781 74.0417 109 73.625 109H66.0312C65.6771 109 65.5 108.865 65.5 108.594V93.1875C65.5 88.625 64.5521 85.4167 62.6562 83.5625C61.4479 82.375 59.9688 81.7812 58.2188 81.7812C57.2188 81.7812 56.125 81.9792 54.9375 82.375C54.4792 82.5417 53.8958 82.7604 53.1875 83.0312C52.5 83.2812 51.9062 83.5 51.4062 83.6875C50.9062 83.875 50.4583 84.0417 50.0625 84.1875V104.438C50.0625 105.792 50.5833 106.656 51.625 107.031C52.6667 107.385 53.1875 107.823 53.1875 108.344C53.1875 108.781 52.9792 109 52.5625 109H41.9688C41.5312 109 41.3125 108.781 41.3125 108.344C41.3125 107.823 41.8333 107.385 42.875 107.031C43.9167 106.656 44.4375 105.792 44.4375 104.438V84.4375C44.4375 83.125 43.9167 82.2812 42.875 81.9062C41.8333 81.5312 41.3125 81.0729 41.3125 80.5312C41.3125 80.0938 41.5312 79.875 41.9688 79.875C43.3438 79.8125 44.6979 79.6042 46.0312 79.25C47.3854 78.875 48.7292 78.4583 50.0625 78V82.3438ZM85.4375 65.25C87.7083 65.25 88.8438 66.3958 88.8438 68.6875C88.8438 71 87.7083 72.1562 85.4375 72.1562C83.1667 72.1562 82.0312 71 82.0312 68.6875C82.0312 66.3958 83.1667 65.25 85.4375 65.25ZM88.25 104.438C88.25 105.792 88.7708 106.656 89.8125 107.031C90.8542 107.385 91.375 107.823 91.375 108.344C91.375 108.781 91.1667 109 90.75 109H80.1562C79.7188 109 79.5 108.781 79.5 108.344C79.5 107.823 80.0208 107.385 81.0625 107.031C82.1042 106.656 82.625 105.792 82.625 104.438V84.4375C82.625 83.125 82.1042 82.2812 81.0625 81.9062C80.0208 81.5312 79.5 81.0729 79.5 80.5312C79.5 80.0938 79.7188 79.875 80.1562 79.875C81.5312 79.8125 82.8854 79.6042 84.2188 79.25C85.5729 78.875 86.9167 78.4583 88.25 78V104.438ZM111.906 79.125H112.562C115.958 79.125 119.083 80.0417 121.938 81.875L121.406 87.1562C121.365 87.4271 121.229 87.5625 121 87.5625H120.906C120.698 87.5417 120.51 87.3333 120.344 86.9375C119.51 85.125 118.417 83.8125 117.062 83C115.729 82.2083 114.104 81.8125 112.188 81.8125H111.438C109.167 81.9375 107.406 82.5938 106.156 83.7812C105.052 84.8646 104.24 86.1667 103.719 87.6875C103.177 89.2083 102.906 90.9062 102.906 92.7812C102.906 93.4062 102.938 94.0417 103 94.6875C103.208 97.7917 104.052 100.333 105.531 102.312C107.469 104.917 109.635 106.396 112.031 106.75C112.427 106.812 112.833 106.844 113.25 106.844C115.125 106.844 117.198 106.219 119.469 104.969C120.656 104.323 121.458 104 121.875 104C121.979 104 122.062 104.021 122.125 104.062C122.167 104.104 122.188 104.188 122.188 104.312C122.188 104.562 122.062 104.958 121.812 105.5C121.5 106.125 121.146 106.615 120.75 106.969C119.562 108.031 118.104 108.76 116.375 109.156C114.646 109.573 113 109.781 111.438 109.781C107.562 109.76 104.302 108.688 101.656 106.562C99.0312 104.417 97.5417 101.354 97.1875 97.375C97.1042 96.4583 97.0625 95.5625 97.0625 94.6875C97.0625 93.5625 97.1354 92.4688 97.2812 91.4062C97.5521 89.5729 98.2604 87.7396 99.4062 85.9062C100.615 83.9688 102.292 82.3854 104.438 81.1562C106.604 79.9271 109.094 79.25 111.906 79.125ZM148.406 106.281L139.812 109.438C139.146 109.667 138.594 109.781 138.156 109.781H136.875C133.917 109.635 131.365 108.427 129.219 106.156C127.073 103.885 125.854 101.094 125.562 97.7812C125.479 96.9062 125.438 96.0625 125.438 95.25C125.438 94.1667 125.51 93.1146 125.656 92.0938C125.906 90.3229 126.594 88.5521 127.719 86.7812C128.26 85.8646 129.188 84.9062 130.5 83.9062C130.958 83.5938 131.469 83.3125 132.031 83.0625C133.698 82.4375 135.365 81.8125 137.031 81.1875C138.719 80.5625 140.406 79.9375 142.094 79.3125C142.448 79.1875 142.781 79.125 143.094 79.125H143.25C144.583 79.1875 146.198 79.5208 148.094 80.125C148.26 80.1875 148.365 80.2292 148.406 80.25C148.865 80.4375 149.427 80.6458 150.094 80.875C150.365 80.9583 150.615 81 150.844 81C151.177 81 151.469 80.9062 151.719 80.7188C152.156 80.3438 152.469 80.0312 152.656 79.7812C152.76 79.6354 152.896 79.5625 153.062 79.5625C153.167 79.5625 153.271 79.5833 153.375 79.625C153.833 79.7917 154.062 80 154.062 80.25V104.438C154.062 105.792 154.583 106.656 155.625 107.031C156.667 107.385 157.188 107.823 157.188 108.344C157.188 108.781 156.969 109 156.531 109H148.938C148.583 109 148.406 108.865 148.406 108.594V106.281ZM148.406 84.9688C147.552 84.1771 146.427 83.4479 145.031 82.7812C143.635 82.0938 142.396 81.7292 141.312 81.6875H141.188C140.771 81.6875 140.354 81.7708 139.938 81.9375C139.188 82.2083 138.438 82.4896 137.688 82.7812C136.958 83.0521 136.219 83.3229 135.469 83.5938C134.948 83.8021 134.531 84.0729 134.219 84.4062C132.927 85.7812 132.062 87.4479 131.625 89.4062C131.271 90.8854 131.094 92.3542 131.094 93.8125C131.094 94.2708 131.115 94.7396 131.156 95.2188C131.385 98.2188 132.198 100.656 133.594 102.531C134.99 104.469 136.74 105.729 138.844 106.312C139.635 106.542 140.438 106.656 141.25 106.656C141.5 106.656 141.76 106.646 142.031 106.625C142.49 106.583 143.031 106.448 143.656 106.219C144.135 106.052 144.885 105.781 145.906 105.406C146.927 105.01 147.76 104.688 148.406 104.438V84.9688Z" fill="#B08F51"/>
<path d="M79.88 59.976C77.4907 59.976 75.0373 59.6133 72.52 58.888C70.0027 58.2053 67.6133 57.1813 65.352 55.816C63.1333 54.4507 61.2133 52.8293 59.592 50.952C56.1787 54.3653 52.936 56.072 49.864 56.072C48.2853 56.072 47.112 55.6027 46.344 54.664C45.576 53.768 45.192 52.5947 45.192 51.144C45.192 48.456 46.216 45.2987 48.264 41.672C50.184 38.2587 51.72 36.4667 52.872 36.296C53.7253 36.296 54.6 37.1707 55.496 38.92L59.528 46.728C61.7893 43.6987 64.1573 40.4347 66.632 36.936C63.1333 35.3573 61.384 33.0747 61.384 30.088C61.384 28.808 61.6827 27.6347 62.28 26.568C62.92 25.4587 63.7307 24.5627 64.712 23.88C65.6933 23.1973 66.696 22.856 67.72 22.856C69.128 22.856 70.152 23.5173 70.792 24.84C70.8773 24.968 70.8773 25.096 70.792 25.224C70.7493 25.352 70.6853 25.3947 70.6 25.352C70.3013 25.0107 69.8747 24.712 69.32 24.456C68.7653 24.2 68.2533 24.072 67.784 24.072C66.888 24.072 66.056 24.4347 65.288 25.16C64.5627 25.8427 63.9867 26.6533 63.56 27.592C63.176 28.5307 63.0267 29.3627 63.112 30.088C63.112 32.264 64.648 34.1627 67.72 35.784C68.4453 34.7173 69.2347 33.5653 70.088 32.328C70.9413 31.048 71.8587 29.6827 72.84 28.232C81.3307 15.7733 88.392 9.544 94.024 9.544C97.992 9.544 99.976 11.4 99.976 15.112C99.976 18.4827 98.3333 22.4507 95.048 27.016C93.4267 29.2773 91.3787 31.304 88.904 33.096C86.4293 34.888 83.8053 36.3173 81.032 37.384C78.3013 38.408 75.656 38.92 73.096 38.92C72.4987 38.92 71.9013 38.8987 71.304 38.856C70.7493 38.7707 70.2373 38.6427 69.768 38.472C68.6587 39.9227 67.3787 41.544 65.928 43.336C64.4773 45.128 62.8773 47.112 61.128 49.288C61.896 50.3547 62.984 51.4213 64.392 52.488C65.8427 53.5547 67.464 54.4933 69.256 55.304C71.048 56.1573 72.8187 56.84 74.568 57.352C76.3173 57.864 77.896 58.12 79.304 58.12C80.9253 58.12 82.4187 57.928 83.784 57.544C85.1493 57.2027 86.2587 56.6267 87.112 55.816C87.9653 55.048 88.392 54.024 88.392 52.744C88.392 52.5733 88.392 52.4027 88.392 52.232C88.392 52.0613 88.3707 51.8907 88.328 51.72C88.328 51.6347 88.3067 51.5707 88.264 51.528C88.264 51.4853 88.264 51.4427 88.264 51.4C88.264 50.9733 88.392 50.76 88.648 50.76C89.0747 50.76 89.416 51.1013 89.672 51.784C89.928 52.424 90.056 52.936 90.056 53.32C90.056 54.6427 89.544 55.7947 88.52 56.776C87.496 57.8 86.1947 58.5893 84.616 59.144C83.08 59.6987 81.5013 59.976 79.88 59.976ZM72.648 37.256C74.824 37.256 77.1493 36.7653 79.624 35.784C82.0987 34.76 84.424 33.4373 86.6 31.816C88.8187 30.152 90.6107 28.36 91.976 26.44C95.8587 21.0213 97.8 16.904 97.8 14.088C97.8 12.8933 97.4587 12.0187 96.776 11.464C96.0933 10.9093 95.2613 10.632 94.28 10.632C92.1467 10.632 89.5013 12.424 86.344 16.008C85.3627 17.16 84.0613 18.824 82.44 21C80.8613 23.1333 78.984 25.7787 76.808 28.936C75.9547 30.1733 75.016 31.4747 73.992 32.84C72.968 34.2053 71.9013 35.6133 70.792 37.064C71.3893 37.192 72.008 37.256 72.648 37.256ZM49.992 54.344C50.8027 54.344 51.6987 54.0453 52.68 53.448C53.704 52.8933 54.6853 52.1893 55.624 51.336C56.5627 50.4827 57.3307 49.6507 57.928 48.84C57.3307 47.9867 56.6907 46.9627 56.008 45.768C55.3253 44.5733 54.5787 43.1867 53.768 41.608C52.7867 39.56 52.04 38.6427 51.528 38.856C50.76 38.984 49.928 40.3493 49.032 42.952C48.136 45.5547 47.688 47.9867 47.688 50.248C47.688 52.9787 48.456 54.344 49.992 54.344ZM91.413 53.32C90.389 53.32 89.365 52.9573 88.341 52.232C87.317 51.5067 86.741 50.6533 86.613 49.672C86.1863 46.3867 88.2557 42.4827 92.821 37.96C97.3437 33.4373 101.418 31.176 105.045 31.176C106.026 31.176 106.794 31.4107 107.349 31.88C107.648 32.1787 107.861 32.584 107.989 33.096C108.16 33.608 108.288 33.864 108.373 33.864C108.544 33.864 108.693 33.8427 108.821 33.8C108.949 33.7147 109.098 33.672 109.269 33.672C109.781 33.672 110.229 33.864 110.613 34.248C110.997 34.632 111.21 34.9733 111.253 35.272C111.296 35.3573 109.93 37.4693 107.157 41.608C104.384 45.6613 103.125 48.4133 103.381 49.864C103.594 50.8453 104.064 51.336 104.789 51.336C107.008 51.336 111.061 47.6667 116.949 40.328C117.077 40.1573 117.205 40.072 117.333 40.072C117.546 40.072 117.653 40.2213 117.653 40.52C117.653 40.8613 117.461 41.288 117.077 41.8C111.658 49.096 107.498 52.744 104.597 52.744C104.213 52.744 103.85 52.68 103.509 52.552C101.632 51.8267 100.693 50.4187 100.693 48.328C100.693 47.6027 100.778 46.8773 100.949 46.152L96.981 49.992C95.7863 51.1867 94.6983 52.04 93.717 52.552C92.7783 53.064 92.0103 53.32 91.413 53.32ZM90.837 51.912C93.3117 51.912 96.6823 49.2027 100.949 43.784L107.733 34.44C107.392 33.8427 106.837 33.544 106.069 33.544C103.466 33.544 99.9463 35.6347 95.509 39.816C90.901 44.0827 88.8317 47.6027 89.301 50.376C89.5143 51.4 90.0263 51.912 90.837 51.912Z" fill="#B08F51"/>
</svg>
